<?xml version="1.0" encoding="utf-8"?>
<!-- Generator: Adobe Illustrator 27.0.0, SVG Export Plug-In . SVG Version: 6.00 Build 0)  -->
<svg version="1.1" id="Calque_1" xmlns="http://www.w3.org/2000/svg" xmlns:xlink="http://www.w3.org/1999/xlink" x="0px" y="0px"
	 viewBox="0 0 512 512" style="enable-background:new 0 0 512 512;" xml:space="preserve">
<style type="text/css">
	.st0{fill:#BFBFBF;}
</style>
<path class="st0" d="M149.1,64.8L138.7,96H64c-35.3,0-64,28.7-64,64v256c0,35.3,28.7,64,64,64h384c35.3,0,64-28.7,64-64V160
	c0-35.3-28.7-64-64-64h-74.7l-10.4-31.2C356.4,45.2,338.1,32,317.4,32H194.6C173.9,32,155.6,45.2,149.1,64.8z M256,384
	c-53,0-96-43-96-96s43-96,96-96s96,43,96,96S309,384,256,384z"/>
</svg>
