<?xml version="1.0" encoding="utf-8"?>
<!-- Generator: Adobe Illustrator 27.0.0, SVG Export Plug-In . SVG Version: 6.00 Build 0)  -->
<svg version="1.1" id="Calque_1" xmlns="http://www.w3.org/2000/svg" xmlns:xlink="http://www.w3.org/1999/xlink" x="0px" y="0px"
	 viewBox="0 0 1830 636" style="enable-background:new 0 0 1830 636;" xml:space="preserve">
<style type="text/css">
	.st0{fill:#8E8E8E;}
	.st1{fill:#8E8E8E;stroke:#828282;stroke-width:9;stroke-miterlimit:10;}
</style>
<g>
	<path class="st0" d="M38.9,177.3c-8.8-0.6-16.6-3.1-23.7-7.6s-10.4-11.2-9.8-20c2.3-15.9,13.7-31.7,33.9-48
		c20.4-16.2,45-31.1,73.8-45s57.2-25.5,85.1-34.3c28-9,50.9-14.3,68.7-15.7c52.3-3.7,87.9,15.9,67.5,71.6
		c-8.4,22.3-21.9,43.3-40.5,62.6s-38.9,36.6-61.5,51.3c-22.3,14.7-43.6,26.2-64.2,34.6c-0.6,0.2-1,0.2-1.4,0.4
		c-4.5,1.6-5.1,2.1-0.6,5.1c6.9,4.9,15.1,11.2,24.5,18.4c35.8,27.6,85.7,65.8,116.9,66.2c6.3,0,7,6.3,0,6.3
		c-35.8-0.2-90.2-40.1-128.6-68.1c-8.4-6.1-15.9-11.6-22.3-16.1c-1.4-1-2.5-2-3.5-2.5c-3.1-2.7-3.9-2.7-8.2-1.6
		c-1,0.2-2,0.6-3.3,0.8c-11.2,2.1-18.4,1.4-21.9-2.4c-3.3-3.7-4.1-7.8-2.3-12.3c1.8-4.7,5.1-7.4,10-8c5.7,0,12.7,2.9,17.4,5.9
		c0.8,0.6,1.6,1,2.1,1.2c3.9,2.4,4.1,2.4,7.6,0.8c0.8-0.2,2-0.8,3.3-1.4c25.8-9.8,51.7-23.9,77.3-42.1
		c25.8-18.4,47.4-38.4,64.8-60.1c13.5-17.2,22.7-33.7,27.4-49.5c4.9-15.9,2.7-28.8-6.1-38.4c-8.8-9.6-26.6-13.7-53.6-12.1
		c-16.6,1.4-38.4,6.5-65.6,15.3c-27,8.6-54.6,19.6-83,32.9C91,78.6,66.9,92.7,46.9,107.8c-19.8,15.1-30.9,29.6-33.3,43.7
		C13.1,164.6,42.4,171,44,163.6c0.8-2.9,3.3-3.7,5.9-3.5c6.3,1.2,14.9,5.5,9,12.5C54.4,176.3,47.7,177.9,38.9,177.3z M119.6,151.2
		c7.2-11.6,13.9-23.3,20.4-35.4c1.4-2.3,1.6-3.5-0.6-4.1c-4.7-1.6-4.1-4.7-1.8-8.6c3.5-6.3,20-25.8,27.8-18.4c2.1,2.2,2,6.1,0.6,8.4
		c-7.2,12.9-14.7,25.6-22.5,38.2l-4.7,7.6c-2.7,4.3-7.6,12.1-14.7,23.3c-11,17-23.9,37.4-38.6,61.1s-28,45.2-39.5,64.8
		c-11.5,19.8-17.8,32.3-19.2,37.8c-0.2,2.5-1.4,5.5-4.7,5.3c-2.5-0.6-2.5-3.7-1.8-6.3v-1c1.4-6.7,6.7-18.4,15.9-35
		s20-34.8,31.9-54.4s22.9-37,32.5-52.5c7.2-11.6,12.5-20,15.9-25.4C117.4,154.8,118.6,153,119.6,151.2z M133.7,226.6
		c2,0,3.1,0,0.6-1.2c-0.2-0.2-0.6-0.4-1.2-0.6c-2.7-1.6-7.2-3.9-6.5,0c0.8,1.6,3.9,1.8,5.3,1.8H133.7z"/>
	<path class="st0" d="M338.2,178.5c-1.4,4.7-5.3,9.6-11.4,14.7c-6.1,5.1-12.5,9-19.2,11.6c-6.5,2.5-11.4,2.4-14.3-0.4
		c-2.1,2.5-4.5,6.1-7.2,10.4c-2.5,4.1-4.1,7.8-4.5,11.2c0,4.9,3.3,7.1,10.2,6.5s14.9-2.7,24.3-6.5c9.4-3.7,18-7.4,25.8-11.2
		c7.8-3.9,12.7-6.7,14.9-8c4.5-2.9,11-1,1,6.3c-3.9,2.7-10.6,6.7-20,11.7c-9.2,4.9-19.2,9.2-29.6,12.9c-10.4,3.7-19.4,4.9-26.6,3.7
		s-10.8-6.5-10.6-16.1c0.6-6.5,4.3-14.1,11-22.9s14.3-16.6,23.1-23.3c8.8-6.9,17-10.2,24.3-10C336.6,170.6,339.6,173.8,338.2,178.5z
		 M301.4,199.6c3.7-1.4,8.4-3.9,13.9-7.4c5.5-3.7,9.6-7.1,12.5-10c2.5-2.9,2.5-3.7-2.4-2.4C319.6,181.8,287.1,204.3,301.4,199.6z"/>
	<path class="st0" d="M413.2,203.7c-10,8.8-20.2,17.4-30.7,25.4s-19.8,13.5-27.8,16.6c-8,3.3-13.3,2.1-15.7-3.1
		c-1.4-4.9,1.2-12.5,7.6-23.1s15.1-21.5,25.8-32.7s22.3-20.4,34.3-27.4c11.9-7.1,22.9-9.6,32.7-7.4c2.5,0.8,4.3,1.6,5.3,2.4
		c2.1,1.2,2.9,2,7-2.1c5.1-4.7,9.2-9,12.5-12.9s6.7-9,10.4-15.1c11.2-18.6,20-32.9,26.4-42.9c8.8-13.7,19-26.8,30.3-39.5
		s21.3-22.5,29.8-29.4c6.8-5.9,20.5-8.6,21.7,1.2C582.3,17.8,578,26,570,37.9c-12.7,18.4-26.2,35.6-40.7,51.5
		c-14.3,15.9-28,29.6-40.9,41.5c-5.3,5.3-9.4,9.8-12.3,13.5s-6.3,8.8-10.2,15.5c-13.3,22.1-26.6,43.8-39.9,65.2
		c-13.1,21.3-24.3,39.1-33.3,53.4c-8.8,14.3-13.5,21.9-14.1,22.5c-2.7,4.3-8.4,3.5-4.9-2.9c7.4-12.9,16.6-29.2,27.8-48.5
		c16.4-28.8,30-52.3,40.5-70.3c5.5-8.6,3.7-6.9-2.7-0.4c-0.6,0.6-1.2,1.4-1.8,2C431.2,187.1,423.2,194.7,413.2,203.7z M406.3,171.2
		c-12.1,8.4-23.5,18.4-34.3,29.9c-10.6,11.4-18,20.8-22.3,28.4c-3.9,7.1-5.5,11.4,0.8,8c9.4-5.3,22.1-14.5,38.4-28
		c16.2-13.5,32.9-28.6,50.3-45.2c2.5-2.4,2.5-3.7-1.2-4.5C429,158.9,418.5,162.6,406.3,171.2z M562,33.2c15.1-22.9-5.3-5.1-11.5,1.2
		c-6.8,7.2-14.5,16.2-22.9,26.6c-8.2,10.4-15.3,19.8-20.9,28.6c-17.6,28.2-5.3,15.1,7.6,1.2c2.2-2.3,4.1-4.5,6.3-6.7
		C535.3,68.7,549.2,51.8,562,33.2z"/>
	<path class="st0" d="M460.9,241.9c0.8-1.4,1.6-2.7,2.5-4.5c4.9-8,9.4-15.9,13.9-23.3c2.9-5.1,5.9-10,8.8-14.9c1-1.8,2-3.3,2.5-4.5
		c1.8-2.5,2.4-3.7,1.8-4.7c-0.6-0.8-1.4-4.9,3.5-12.1c7-10.4,16.8-14.7,18.8-4.9c-0.2,2.1-1.6,4.3-1.8,4.9
		c-3.5,5.7-7.2,12.1-11.4,19.4c-1.4,2.4-2.9,4.9-4.3,7.4c-1.4,2.4-2.7,4.7-4.1,7.2c-3.1,5.5-6.5,11.2-10.2,17
		c-7.8,12.3-2.9,10.2,9.8,2.1c8-4.9,18-10.2,30-15.9c7.6-3.1,9.8,0.8,3.3,4.5c-14.5,7.4-30,17.4-46.2,29.9c-1.4,1-2.7,2-3.7,2.9
		c-12.5,9.2-13.5,10.4-23.5,26c-39.3,61.9-86.9,123.9-125.7,126.1c-5.1,0.2-9-0.6-11.5-2.7c-4.5-3.9-5.5-9.2-2.5-15.9
		c2.7-6.5,6.9-12.9,12.1-19.4s9.8-11.4,13.1-14.7c0.4-0.2,0.8-0.6,1-1c26.8-27.2,60.9-55.6,102-85.5
		C453.1,255.6,454.1,254,460.9,241.9z M425.3,298.5c12.3-17.8,14.1-21.3-0.6-10.4c-32.3,24.9-58.9,48.4-79.9,70.5l-0.6,0.6
		c-5.1,5.5-37.2,38.4-22.1,37.6c15.7-1.4,32.3-11.4,49.9-29.6c17.4-18.2,35-40.9,52.7-67.9C424.9,299,425.1,298.6,425.3,298.5z
		 M508.3,157.1c6.7-5.9,7.6-8.6,8-10.8c0.6-1.6,1-3.1,3.1-5.7c2.9-0.8,5.9,0.4,6.8,3.3c0.6,1.8,0.8,3.3,0.6,4.7
		c-0.8,6.1-7.2,12.5-14.1,12.3C509.9,161,508.1,160.1,508.3,157.1z"/>
	<path class="st0" d="M627.9,210.9c-4.9,2.9-11.3,5.9-19.2,8.8c-7.6,2.7-14.7,3.5-20.8,2.5c-6.1-1.2-9.4-6.1-9.6-14.9v-1
		c0.2-3.7,0-3.5-3.7-1.2c-20.2,13.1-35,21.3-44.6,24.7c-9.4,3.3-14.9,3.3-16.6,0.4c-2.1-4.1,0.6-10.6,7.8-19.4
		c7.2-8.8,16.6-17.2,28.2-25.2c11.5-8,22.7-12.7,33.3-14.3c10.6-1.8,18,2.5,22.3,12.5c0.8,2.5-1.2,4.9-3.7,5.7
		c-2.5,0.8-6.5-1.6-7.8-4.1c0-0.6,0.4-1,0.6-1.6s0.6-1,0.4-1.6c-3.3-4.5-8.8-5.1-16.8-2c-8,3.1-16.4,8-25.2,14.7
		c-8.8,6.7-16.4,12.9-22.5,19c-6.1,5.9-9,9.4-8.6,10.8c0.6,1.4,5.7-0.8,15.5-6.5c9.8-5.7,25.8-16.1,48.2-31.5c2.3-1.4,5.1-1,6.7,1.4
		c1,1.6,1,3.1,0.2,4.7c-4.9,10.8-5.5,17.2-1.8,19.8c3.9,2.5,9.4,2.7,16.6,0.6c7.2-2.1,13.5-4.7,18.8-7.6
		C632.4,201.9,634.2,206.4,627.9,210.9z"/>
	<path class="st0" d="M646.3,176.1c0.6-1,1-1.6,1.4-2c-3.1-5.9,12.9-17.4,16.4-11.9c1.8,2.9,0.2,5.5-1.6,7.8c-0.2,0.2-0.6,0.6-0.8,1
		c-4.9,7.1-10.4,14.9-16.2,23.7c-5.7,8.6-10,15.9-12.9,21.7c-2.2,5.1-0.8,7.8,4.1,8.4c5.1,0.6,11.5-0.2,19.6-2.4
		c8-2.1,15.5-4.3,22.1-6.7c6.8-2.5,10.8-4.1,12.1-4.9c4.1-2.4,6.8,2,1.8,5.5c-8.4,4.7-19.6,9-33.3,12.9c-13.5,3.9-23.3,5.9-29.2,5.9
		C604.4,235.2,637.7,187.9,646.3,176.1z M661.8,152.4c-0.8-2.1,2.5-3.5,4.5-4.7c1-0.2,1.6-0.6,1.6-0.8c0.2-2.9,2.5-4.9,5.7-4.7
		C688.2,143,665.7,161.8,661.8,152.4z"/>
	<path class="st0" d="M778.4,209.6c6.3-6.9,12.7-13.1,19.4-19.2c6.8-6.1,12.5-9,17-9.2c4.3,0.6,6.7,3.1,7.2,7.4
		c0.6,4.1,0.8,8.8,0.2,13.9c-0.8,6.5-1,12.3,1.4,14.7c2.2,2.1,10.8-1,25.5-9.8c5.5-3.1,8.8,1.2,2.2,5.1
		c-19.4,11.9-28.8,15.3-34.5,10c-4.9-4.7-6.7-12.9-5.3-24.9c0.2-5.5-0.8-4.9-5.5-1c-0.2,0.2-0.6,0.4-0.8,0.6
		c-3.9,3.3-8.4,7.2-13.3,12.1c-6.1,6.1-12.1,11.4-17.8,15.9c-5.7,4.5-10.2,6.1-13.5,5.1c-14.3-5.3-3.5-31.7,2.5-46.4
		c1-2.5,2-4.7,2.5-6.5c4.5-13.7-40.7,28.4-55.6,41.5c-2.2,2-3.5,3.3-4.1,3.9s-1.6,1.4-2.9,2.4c-7.2,6.9-23.1,20.8-28.4,18.8
		c-3.9-2.1-4.3-6.3-1.4-12.3c7.8-15.9,16.8-30.7,27-44.6c5.3-7.4,10.2-14.9,15.1-22.5c0.2-0.6,0.4-0.6-0.2-1.2l-0.2-0.2
		c-1.8-1.8-1.2-3.9,1-6.3c2.3-2.4,17.8-12.9,11.9,4.3c-8,14.5-17.2,29.2-27.6,43.8c-2.3,3.5-4.7,7.1-6.8,10.4
		c-6.3,9.4-4.1,7.8,2.7,1.8c1-0.8,1.8-1.6,2.7-2.4c25.6-22.3,60.5-52.7,71.6-48.7c5.3,2.5,6.3,8.8,2.9,18.8
		c-0.2,0.6-0.8,1.8-1.4,3.5c-3.3,9.8-12.5,34.4-9.4,35C764.9,223.7,770.8,217.6,778.4,209.6z"/>
	<path class="st0" d="M868.1,176.1c0.6-1,1-1.6,1.4-2c-3.1-5.9,12.9-17.4,16.4-11.9c1.8,2.9,0.2,5.5-1.6,7.8c-0.2,0.2-0.6,0.6-0.8,1
		c-4.9,7.1-10.4,14.9-16.2,23.7c-5.7,8.6-10,15.9-12.9,21.7c-2.2,5.1-0.8,7.8,4.1,8.4c5.1,0.6,11.5-0.2,19.6-2.4
		c8-2.1,15.5-4.3,22.1-6.7c6.8-2.5,10.8-4.1,12.1-4.9c4.1-2.4,6.8,2,1.8,5.5c-8.4,4.7-19.6,9-33.3,12.9c-13.5,3.9-23.3,5.9-29.2,5.9
		C826.2,235.2,859.5,187.9,868.1,176.1z M883.6,152.4c-0.8-2.1,2.5-3.5,4.5-4.7c1-0.2,1.6-0.6,1.6-0.8c0.2-2.9,2.5-4.9,5.7-4.7
		C910,143,887.5,161.8,883.6,152.4z"/>
	<path class="st0" d="M1014.9,210.9c-4.9,2.9-11.3,5.9-19.2,8.8c-7.6,2.7-14.7,3.5-20.8,2.5c-6.1-1.2-9.4-6.1-9.6-14.9v-1
		c0.2-3.7,0-3.5-3.7-1.2c-20.2,13.1-35,21.3-44.6,24.7c-9.4,3.3-14.9,3.3-16.6,0.4c-2.2-4.1,0.6-10.6,7.8-19.4
		c7.2-8.8,16.6-17.2,28.2-25.2c11.5-8,22.7-12.7,33.3-14.3c10.6-1.8,18,2.5,22.3,12.5c0.8,2.5-1.2,4.9-3.7,5.7
		c-2.5,0.8-6.5-1.6-7.8-4.1c0-0.6,0.4-1,0.6-1.6s0.6-1,0.4-1.6c-3.3-4.5-8.8-5.1-16.8-2s-16.4,8-25.2,14.7s-16.4,12.9-22.5,19
		c-6.1,5.9-9,9.4-8.6,10.8c0.6,1.4,5.7-0.8,15.5-6.5c9.8-5.7,25.8-16.1,48.2-31.5c2.3-1.4,5.1-1,6.7,1.4c1,1.6,1,3.1,0.2,4.7
		c-4.9,10.8-5.5,17.2-1.8,19.8c3.9,2.5,9.4,2.7,16.6,0.6c7.2-2.1,13.5-4.7,18.8-7.6C1019.4,201.9,1021.2,206.4,1014.9,210.9z"/>
	<path class="st0" d="M1163.5,82.2c6.1-9.2,13.5-17.6,22.7-25.2s17-13.3,23.5-17.4c5.7-3.9,13.7-8.6,24.3-14.3
		c10.8-5.7,21.9-10.4,33.7-14.1c11.9-3.7,22.3-4.7,31.3-2.5c9.2,2.2,14.9,9,17.4,20.8c1.8,13.1-2.7,31.1-13.3,54
		c-10.4,22.9-23.3,46.8-38.8,72c-15.5,25.1-29.6,47.4-42.7,67.1c-7.4,11.6-13.5,20.9-18,28.2c-6.5,10-5.5,10.2,4.7,5.5
		c48.2-20.4,201.2-83,226.5-21.7c0.2,0.2,0.2,0.2,0.2,0.4c1,2.5,2,5.7-0.6,7.1c-3.1,1-4.7-1.6-5.5-4.1c-4.9-11-14.5-17.4-28.8-19.6
		c-14.3-2.1-30.9-1.2-50.3,2.5c-19.2,3.7-38.8,8.8-58.7,15.5c-19.8,6.7-38,13.3-54.2,20c-16.2,6.9-28.4,12.1-36.6,15.9
		c-13.7,6.1-14.5,7.2-21.3,18.6c-0.6,1-1,2-1.6,2.9c-1.4,2.1-2.7,4.5-4.1,6.9l-4.7,7.6c-3.9,5.9-9.8,3.1-5.9-4.7
		c1.8-2.9,3.3-5.7,5.1-8.4c0.6-1.2,1.4-2.4,2-3.5c0.2-0.2,0.6-0.8,1.2-1.6c1-1.8,2.5-4.3,3.5-6.1c-2.2,1.2-6.5,3.1-7.4,3.5
		c-24.9,11.5-49.3,24.1-73,37.6c-3.1,2.1-4.3,3.3-5.9,6.5c-3.3,5.3-9.2,7.2-15.3,8.6c-2.9,0.6-6.3,0.4-8-2.1
		c-2.9-5.3,2-11.2,6.5-13.7c32.7-19.4,66.6-36.6,101.2-52.1c12.3-5.5,12.5-5.9,17-13.5c1-1.8,2.2-3.7,3.5-6.1
		c2.5-4.5,7.1-11.7,13.5-21.7c9.4-14.7,20.6-32.3,33.3-53.2c12.7-20.9,25.1-42.3,36.6-64c11.7-21.7,20.6-41.3,26.2-58.3
		c5.9-17,6.5-29,1.6-35.6c-5.7-5.9-15.3-6.9-28.8-2.7c-13.5,4.1-28.2,10.8-43.8,20.4s-29.4,19.8-41.3,30.5s-19,19.8-21.1,27.4
		c-0.8,4.1-0.4,4.3,0,4.7c0.6,0.2,0.6,0.6,1.2,1.4c3.1,9.4-7.8,15.7-11.3,8C1156,100.4,1157.4,91.3,1163.5,82.2z"/>
	<path class="st0" d="M1503.7,195.1c-0.8,0.2-2,0.4-2.2,1.2c-6.7,9-20,34.4-7.4,34.4c10-1,21.3-5.9,34.1-14.7
		c12.7-8.8,23.5-17,32.7-24.7c1.8-1.4,3.1-2.5,4.5-3.5c6.8-6.1,20.2-14.7,24.3-8.2c0.2,3.1-0.4,7.1-1.8,11.7
		c-8,34.4,14.9,26.2,38.9,16.1c7.8-3.9,7.8,2.1,2.2,4.9c-27.2,14.1-57.2,18.6-53.2-12.5c1.4-9.2,0-9-7.8-2.1
		c-0.2,0.2-0.4,0.2-0.6,0.4c-1,1-2.2,2-3.5,2.9c-9.2,8-20,16.1-32.3,24.1c-12.3,8-24.3,12.5-35.8,13.5c-4.1,0.2-7.8-0.6-10.8-2.1
		c-14.9-10,0.6-34.7,8.2-46.8c0.6-1.2,1.2-2.1,1.8-3.1c2.5-3.9,7.6-6.1,10.8-5.5c4.1,0.4,7.2,3.1-0.8,13.5
		C1504.7,194.7,1504.3,194.9,1503.7,195.1z"/>
	<path class="st0" d="M1638.6,208.2c-5.5,9.2-8.6,16.4-9.4,21.5c0,3.3,2.9,4.3,8.8,2.7c6.1-1.4,13.1-4.1,21.1-7.8
		c8.2-3.9,15.5-7.6,21.9-11.4c6.5-3.7,10.2-5.9,11.2-6.7c6.1-4.3,8.4,0,4.5,3.5c-3.7,2.9-10.2,7.2-19.6,12.7
		c-9.4,5.5-19.2,10.2-29.2,13.9c-10,3.7-17.8,4.5-23.3,2.4c-5.7-2.1-6.3-9.4-2.2-21.7c3.5-9.2,9.6-19.2,18-29.8
		c8.4-10.8,16.2-17,23.1-19c3.1-0.6,5.7,0,7.6,1.6c2.2,1.6,3.3,3.7,3.9,6.3c-1.6,8.6-11.6,11.9-14.3,8c-0.2-0.4-0.2-0.8-0.4-1
		c-0.4-1.6-1-2-5.3,2.4C1649.7,191.4,1644.2,198.8,1638.6,208.2z"/>
	<path class="st0" d="M1797.3,210.9c-4.9,2.9-11.3,5.9-19.2,8.8c-7.6,2.7-14.7,3.5-20.8,2.5c-6.1-1.2-9.4-6.1-9.6-14.9v-1
		c0.2-3.7,0-3.5-3.7-1.2c-20.2,13.1-35,21.3-44.6,24.7c-9.4,3.3-14.9,3.3-16.6,0.4c-2.2-4.1,0.6-10.6,7.8-19.4
		c7.2-8.8,16.6-17.2,28.2-25.2c11.6-8,22.7-12.7,33.3-14.3c10.6-1.8,18,2.5,22.3,12.5c0.8,2.5-1.2,4.9-3.7,5.7
		c-2.5,0.8-6.5-1.6-7.8-4.1c0-0.6,0.4-1,0.6-1.6c0.2-0.6,0.6-1,0.4-1.6c-3.3-4.5-8.8-5.1-16.8-2c-8,3.1-16.4,8-25.2,14.7
		c-8.8,6.7-16.4,12.9-22.5,19c-6.1,5.9-9,9.4-8.6,10.8c0.6,1.4,5.7-0.8,15.5-6.5c9.8-5.7,25.8-16.1,48.2-31.5c2.3-1.4,5.1-1,6.7,1.4
		c1,1.6,1,3.1,0.2,4.7c-4.9,10.8-5.5,17.2-1.8,19.8c3.9,2.5,9.4,2.7,16.6,0.6c7.2-2.1,13.5-4.7,18.8-7.6
		C1801.8,201.9,1803.6,206.4,1797.3,210.9z"/>
	<path class="st0" d="M1793,218.4c3.3-8.6,7.4-17,11.9-25.2s9.8-12.9,15.5-13.9c3.7,0.8,6.3,3.7,3.3,7.4c-4.5,6.1-7.4,9-10.8,12.3
		c-1.8,1.8-3.7,3.9-6.3,6.5c-1.8,4.3-3.3,8.6-4.9,12.9c-0.6,2.1-1.4,4.1-2.2,6.1c-1.2,4.3-0.8,4.3,1.8,3.5c0.2-0.2,0.2-0.2,0.4-0.2
		c8-2.4,8,4.1,3.5,6.7c-1.4,0.8-2.9,1.2-4.3,1.4c-1.8,0.2-3.3,1-4.9,2c-1.8,1.4-3.7,4.3-5.1,6.7c-4.9,9.6-11.9,18.4-21.1,26.8
		c-9.2,8.4-20,13.3-32.5,15.1c-40.1,4.5,13.7-34.1,47-51.5C1786.5,233.5,1789.3,227,1793,218.4z M1778.1,245.6
		c-10.6,4.7-47.4,33.1-43.5,33.1c4.3,0.2,10.6-2.1,18.6-7.2c8-4.9,15.1-11,21.1-18C1776.9,250.3,1781.4,244.4,1778.1,245.6z"/>
</g>
<g>
	<path class="st1" d="M916.8,390.9l37-28.8h13.3l-43.5,33.6l44.8,34.6h-13.4l-38.2-29.8l-38.4,29.8h-13.2l44.9-34.6l-43.6-33.6h13.3
		L916.8,390.9z"/>
</g>
<g>
	<path class="st0" d="M885.1,484.6c0,14.7-0.2,29.4,0,44.1c0,3.3-1,5.6-3.6,7.7c-10.1,7.7-20,15.5-29.9,23.3c-0.7,0.5-1.5,1-2.8,1.9
		c0-1.8,0-3,0-4.3c0-20.6,0-41.2,0-61.8c0-4.4-0.2-10.9,5.3-10.9c0.2,0,0.1,0,0.4,0C864.6,484.6,874.8,484.6,885.1,484.6z"/>
	<g>
		<path class="st0" d="M1363,622.3c-0.6,3.8-2.6,6.1-6.4,6.2c-9.5,0.2-19,0.1-28.9,0.1c0-38.8,0-77.4,0-116.1
			c-0.4-0.2-0.8-0.3-1.2-0.5c-0.6,1.1-1.3,2.1-1.6,3.2c-7.9,31.2-15.8,62.4-23.7,93.5c-1.1,4.3-2.2,8.5-3.4,12.7
			c-1.5,4.8-4.8,7.2-9.9,7.2c-6.8,0-13.7,0-20.7,0c-3.1-12-6.2-23.9-9.2-35.7c-6.6-25.8-13.2-51.6-19.9-77.3
			c-0.3-1.3-1.1-2.4-1.7-3.6c-0.5,0.1-0.9,0.3-1.4,0.4c0,1.3,0,2.6,0,4c0,35.6,0,71.1,0,106.7c0,5.5-0.1,5.6-5.7,5.6
			c-3.6,0-7.2,0-11.4,0c0-1.7,0-3.1,0-4.5c0-42.4,0-84.8,0-127.2c0-4.7-1.2-12.3,4.7-12.3c0.1,0,0.4,0,0.6,0c12.1,0,24.2,0,36.3,0
			c0,0.5,0,0.9,0.1,1.4c7.8,34.8,15.5,69.5,23.3,104.3c0.3,1.1,0.7,2.2,1.3,4.2c0.6-2.2,0.9-3.4,1.2-4.7
			c7.4-31.2,14.8-62.3,22.2-93.5c1.2-5.1,3.3-11.7,8.9-11.7c0.4,0,0.6,0,1,0c15.4,0,30.7,0,46.1,0"/>
		<path class="st0" d="M673.4,494.3c0-3.8,0-9.6,4.6-9.6c0.2,0,0.3,0,0.5,0c10.5,0,20.9,0,31.4,0c0.1,1,0.3,2.1,0.3,3.1
			c0,34.2,0.1,68.3,0,102.5c0,4.4-0.4,8.8-1.4,13.1c-4,15.9-15.4,23.9-30.6,27.3c-5.4,1.2-10.9,1.9-16.4,2.9c-8.6,0-17.2,0-25.8,0
			c-5.9-1.2-11.9-1.9-17.6-3.6c-15.5-4.4-27.4-12.7-30.2-29.8c-0.6-3.6-0.8-7.4-0.8-11.1c-0.1-30.6,0-61.1-0.1-91.7
			c0-4.9-0.5-9.8,4.7-12.7c10.7,0,21.4,0,32.1,0c0,36.1,0,72.2,0.1,108.4c0,3.3,0.2,6.7,0.7,10c0.8,6,4,10.2,9.7,12.5
			c6.5,2.7,13.3,3.3,20.2,2.2c13.5-2.2,18.2-7.5,18.8-21.1"/>
		<path class="st0" d="M920.5,545c1.9-1.4,2.5-3,2.5-5.3c0-13.8-0.1-27.6,0.4-41.4c0.2-7.6,2.5-13.8,10.3-13.8c0.7,0,1,0,1.7,0
			c28.4,0,56.8,0,85.2,0c-0.1,4.2-0.4,8.3-0.3,12.5c0.1,3.1-1.1,4-4.1,4c-14.1-0.1-28.2-0.1-42.2,0c-1.2,0-2.3,0-3.5,0
			c-6.3,0.3-9.1,3-9.2,9.4c-0.1,8.8,0,17.6,0,26.4c0,3.1,0,6.2,0,9.8c18.6,0,37,0,55.8,0c0,5.1,0.2,9.7-0.1,14.3
			c-0.1,0.8-1.9,2.1-3,2.2c-7,0.2-14,0.1-20.9,0.1c-9.2,0-18.4,0-27.6,0c-1.2,0-2.5,0-4.1,0c0,1.6,0,2.8,0,4.1c0,17.4,0,34.8,0,52.2
			c0,7.1-2,9.1-9.1,9.2c-9.5,0-19.1,0-29,0c0-21.8,0-43.4,0-65.3c-8.5,0-16.6,0-24.7,0c-0.4,0-0.6,0-0.9,0"/>
		<path class="st0" d="M469.7,628.6c9.5,0,19.1,0.1,28.6,0.1c7.7,0,9.7-2,9.8-9.6c0-17.3,0-34.5,0-51.8c0-1.2,0-2.5,0-4
			c1.6,0,2.9,0,4.1,0c15.9,0,31.9,0,47.8,0c1.7,0,3.8,0.3,3.8-2.3c0.1-4.6,0-9.2,0-14.1c-18.7,0-37.1,0-55.8,0c0-1.5,0-2.6,0-3.7
			c0-10.3,0-20.6,0-30.9c0-8.7,2.4-11.1,11.2-11.2c1.5,0,3,0,4.5,0c13,0,26-0.1,39.1,0c3,0,4.2-0.8,4-3.9c-0.3-4.2-0.1-8.3-0.1-12.5
			c-28.2,0-56.3,0-84.5,0c-0.8,0-1.2-0.1-1.6,0c-6.7,0.9-9.6,6.2-10.9,12.5"/>
		<path class="st0" d="M1150.4,484.6c0,38.5,0,77,0,115.4c0,9.6,3.6,13.2,13.3,13.2c12,0,23.9,0,36.3,0c0,4.5,0.2,8.8-0.1,13
			c-0.1,0.9-1.8,2.2-3,2.3c-2.9,0.3-5.8,0.1-8.7,0.1c-18,0-36.1,0-54.1-0.1c-3,0-6-0.5-8.9-1.4c-6.5-1.8-10.1-6.3-11.1-12.9
			c-0.4-2.7-0.5-5.5-0.6-8.3c0-34.9,0-69.8,0-104.7c0-6-1.5-12.5,4.8-16.7C1129,484.6,1139.7,484.6,1150.4,484.6z"/>
		<path class="st0" d="M732.2,633.5c-7-1.9-7-1.9-7-9.8c0-1.6,0-3.2,0-5.3c1.5,0,2.9,0,4.2,0c8.6-0.3,17.2-0.2,25.8-0.9
			c15.4-1.4,22.6-9.3,22.9-24.8c0.2-9.2,0.1-18.3,0.1-27.5c0-22.9,0-45.9,0-68.8c0-4.3-1.1-11.7,4.1-11.8c0.1,0,0.1,0,0.2,0
			c10.9,0,21.9,0,32.8,0c-0.1,1.5-0.3,3-0.3,4.5c0,29,0.1,58.1-0.1,87.1c-0.1,7.5-0.4,15.1-2,22.4c-4,18-16.9,27.4-34,31.9
			c-5,1.3-10.2,2-15.3,2.9C753.1,633.5,742.7,633.5,732.2,633.5z"/>
		<path class="st0" d="M1078.5,484.6c0.1,1.3,0.3,2.5,0.3,3.8c0,43.4,0,86.9,0,130.3c0,0.3,0,0.7,0,1c-0.1,7.5-1.5,8.9-9,8.9
			c-9.1,0-18.1,0-27.7,0c0-1.6,0-3.1,0-4.5c0-41.4,0-82.7,0-124.1c0-5.7-1.4-11.9,5-15.5C1057.5,484.6,1068,484.6,1078.5,484.6z"/>
		<path class="st0" d="M848.5,628.7c0-22,0-43.5,0-65.2c12.2,0,24.2,0,36.4,0c0.1,1,0.2,2,0.2,3c0,17.8,0,35.6,0,53.5
			c0,7.2-1.5,8.7-8.8,8.8C867.2,628.8,858,628.7,848.5,628.7z"/>
	</g>
</g>
</svg>
